HIERARCHY
ROOT Hips
{
	OFFSET 0.00000 0.00000 0.00000
	CHANNELS 6 Xposition Yposition Zposition Zrotation Yrotation Xrotation 
	JOINT LHipJoint
	{
		OFFSET 0 0 0
		CHANNELS 3 Zrotation Yrotation Xrotation
		JOINT LeftUpLeg
		{
			OFFSET 1.37959 -1.78713 0.86582
			CHANNELS 3 Zrotation Yrotation Xrotation
			JOINT LeftLeg
			{
				OFFSET 2.54611 -6.99539 0.00000
				CHANNELS 3 Zrotation Yrotation Xrotation
				JOINT LeftFoot
				{
					OFFSET 2.59951 -7.14211 0.00000
					CHANNELS 3 Zrotation Yrotation Xrotation
					JOINT LeftToeBase
					{
						OFFSET 0.18493 -0.50810 1.96120
						CHANNELS 3 Zrotation Yrotation Xrotation
						End Site
						{
							OFFSET 0.00000 -0.00000 1.02054
						}
					}
				}
			}
		}
	}
	JOINT RHipJoint
	{
		OFFSET 0 0 0
		CHANNELS 3 Zrotation Yrotation Xrotation
		JOINT RightUpLeg
		{
			OFFSET -1.33564 -1.78713 0.86582
			CHANNELS 3 Zrotation Yrotation Xrotation
			JOINT RightLeg
			{
				OFFSET -2.52705 -6.94302 0.00000
				CHANNELS 3 Zrotation Yrotation Xrotation
				JOINT RightFoot
				{
					OFFSET -2.55964 -7.03257 0.00000
					CHANNELS 3 Zrotation Yrotation Xrotation
					JOINT RightToeBase
					{
						OFFSET -0.25804 -0.70896 2.12109
						CHANNELS 3 Zrotation Yrotation Xrotation
						End Site
						{
							OFFSET -0.00000 -0.00000 1.11821
						}
					}
				}
			}
		}
	}
	JOINT LowerBack
	{
		OFFSET 0 0 0
		CHANNELS 3 Zrotation Yrotation Xrotation
		JOINT Spine
		{
			OFFSET -0.02031 2.24248 -0.18900
			CHANNELS 3 Zrotation Yrotation Xrotation
			JOINT Spine1
			{
				OFFSET 0.08342 2.24689 -0.03799
				CHANNELS 3 Zrotation Yrotation Xrotation
				JOINT Neck
				{
					OFFSET 0 0 0
					CHANNELS 3 Zrotation Yrotation Xrotation
					JOINT Neck1
					{
						OFFSET -0.11607 1.55844 0.24628
						CHANNELS 3 Zrotation Yrotation Xrotation
						JOINT Head
						{
							OFFSET 0.06877 1.60174 -0.17013
							CHANNELS 3 Zrotation Yrotation Xrotation
							End Site
							{
								OFFSET 0.03358 1.61266 -0.08543
							}
						}
					}
				}
				JOINT LeftShoulder
				{
					OFFSET 0 0 0
					CHANNELS 3 Zrotation Yrotation Xrotation
					JOINT LeftArm
					{
						OFFSET 3.47537 0.55866 -0.72348
						CHANNELS 3 Zrotation Yrotation Xrotation
						JOINT LeftForeArm
						{
							OFFSET 5.38154 -0.00000 0.00000
							CHANNELS 3 Zrotation Yrotation Xrotation
							JOINT LeftHand
							{
								OFFSET 3.33312 -0.00000 0.00000
								CHANNELS 3 Zrotation Yrotation Xrotation
								JOINT LeftFingerBase
								{
									OFFSET 0 0 0
									CHANNELS 3 Zrotation Yrotation Xrotation
									JOINT LeftHandIndex1
									{
										OFFSET 0.71079 -0.00000 0.00000
										CHANNELS 3 Zrotation Yrotation Xrotation
										End Site
										{
											OFFSET 0.57306 -0.00000 0.00000
										}
									}
								}
								JOINT LThumb
								{
									OFFSET 0 0 0
									CHANNELS 3 Zrotation Yrotation Xrotation
									End Site
									{
										OFFSET 0.58181 -0.00000 0.58181
									}
								}
							}
						}
					}
				}
				JOINT RightShoulder
				{
					OFFSET 0 0 0
					CHANNELS 3 Zrotation Yrotation Xrotation
					JOINT RightArm
					{
						OFFSET -3.27844 0.90739 -0.35708
						CHANNELS 3 Zrotation Yrotation Xrotation
						JOINT RightForeArm
						{
							OFFSET -5.16954 -0.00000 0.00000
							CHANNELS 3 Zrotation Yrotation Xrotation
							JOINT RightHand
							{
								OFFSET -3.38287 -0.00000 0.00000
								CHANNELS 3 Zrotation Yrotation Xrotation
								JOINT RightFingerBase
								{
									OFFSET 0 0 0
									CHANNELS 3 Zrotation Yrotation Xrotation
									JOINT RightHandIndex1
									{
										OFFSET -0.81797 -0.00000 0.00000
										CHANNELS 3 Zrotation Yrotation Xrotation
										End Site
										{
											OFFSET -0.65947 -0.00000 0.00000
										}
									}
								}
								JOINT RThumb
								{
									OFFSET 0 0 0
									CHANNELS 3 Zrotation Yrotation Xrotation
									End Site
									{
										OFFSET -0.66953 -0.00000 0.66953
									}
								}
							}
						}
					}
				}
			}
		}
	}
}
MOTION
Frames: 10
Frame Time: .0083333
13.6063 17.4221 -16.7182 0 0 0 0 0 0 -21 0 0 0 0 0 0 0 0 0 0 0 0 0 0 21 0 0 0 0 0 0 0 0 0 0 0 0 0 0 0 0 0 0 0 0 0 0 -16 0 0 21 0 0 11 0 0 0 -8 0 0 0 0 0 0 0 0 0 0 0 0 0 0 0 0 0 0 0 0 8 0 0 0 0 0 0 0 0 0 0 0 0 0 0 0 0 0
13.6063 17.4221 -16.7182 -2.0596 -5.6809 1.1314 0.0000 0.0000 0.0000 -17.3609 -3.9867 -24.6216 2.7271 10.2395 29.7560 0.0813 -4.7911 -5.6739 0.0149 -0.7880 -2.1655 0.0000 0.0000 0.0000 22.0488 4.1738 2.1381 -6.6476 -15.0278 47.5286 -1.2161 -10.2378 19.9194 -0.6517 -5.1639 14.3767 0.8054 2.8027 3.0766 0.1134 3.7475 2.7493 -0.4078 1.8849 1.1416 -11.2403 -3.5315 -15.3090 7.2641 -3.7393 20.4485 3.9190 -1.8402 9.3185 0.0000 0.0000 0.0000 -83.2576 5.9367 13.7107 18.0422 -28.2111 -4.5692 -0.0000 -0.0000 12.4820 -7.4045 35.6937 -4.3361 -7.1250 0.0000 -0.0000 -46.2453 59.4004 -18.6662 0.0000 0.0000 0.0000 60.3827 -13.2235 72.4425 -37.8625 46.7513 -16.8654 0.0000 -0.0000 -22.3873 0.0000 0.0000 0.0000 0.0000 0.0000 0.0000 0.0000 -0.0000 0.0000
13.6182 17.4382 -16.5571 -1.5787 -5.9779 0.9305 0.0000 0.0000 0.0000 -18.0541 -3.5029 -23.7874 2.6969 10.1875 29.5859 0.1074 -4.7859 -6.2755 0.0229 -0.9766 -2.6843 0.0000 0.0000 0.0000 21.4706 4.8943 0.6245 -7.3886 -15.6506 50.3293 -1.1235 -11.3472 19.3749 -0.4590 -4.3458 12.0517 0.2569 2.8802 3.1368 0.0712 3.8394 3.0231 -0.1424 1.9230 1.3574 -11.1492 -3.5195 -16.1807 7.1499 -3.6266 20.6648 3.8792 -1.7804 9.5404 0.0000 -0.0000 0.0000 -83.0979 5.4830 14.0703 18.0434 -28.2127 -4.5697 -0.0000 -0.0000 12.5572 -7.8153 35.6482 -4.5735 -7.1250 0.0000 -0.0000 -46.5656 59.2712 -18.6848 0.0000 -0.0000 0.0000 60.2104 -12.6610 72.2541 -37.8299 46.7303 -16.8416 0.0000 -0.0000 -22.3054 0.0000 0.0000 0.0000 0.0000 0.0000 0.0000 0.0000 -0.0000 0.0000
13.6387 17.4551 -16.3916 -0.9786 -5.9425 0.5709 0.0000 0.0000 0.0000 -18.9551 -3.2219 -22.6047 2.6225 10.0574 29.1627 0.1310 -4.7409 -6.7747 0.0339 -1.1879 -3.2659 0.0000 0.0000 0.0000 20.6951 5.1194 -0.6503 -8.0673 -16.1686 52.8048 -0.9444 -12.3267 18.1708 -0.3605 -3.8569 10.6745 -0.2865 2.8245 3.3053 -0.0465 3.7552 3.1866 0.0366 1.8722 1.4041 -11.0817 -3.4688 -17.2116 7.1504 -3.4831 21.4034 3.9010 -1.7011 9.9776 -0.0000 0.0000 0.0000 -82.8705 4.9740 14.0996 17.6089 -27.6535 -4.3662 -0.0000 -0.0000 12.8135 -7.4096 34.7261 -4.2369 -7.1250 0.0000 -0.0000 -45.1659 58.6972 -17.3267 -0.0000 0.0000 0.0000 59.9573 -12.3922 72.5845 -37.9698 46.8200 -16.9436 0.0000 -0.0000 -22.1911 0.0000 0.0000 0.0000 0.0000 0.0000 0.0000 0.0000 -0.0000 0.0000
13.6716 17.4701 -16.2108 -0.2682 -5.4995 0.1277 0.0000 0.0000 0.0000 -20.0732 -3.2496 -21.2360 2.5583 9.9432 28.7930 0.1566 -4.7411 -7.2977 0.0480 -1.4136 -3.8875 0.0000 0.0000 0.0000 19.6384 4.7414 -1.8262 -8.7268 -16.6287 55.1404 -0.7213 -12.8854 16.4773 -0.4401 -4.2568 11.8001 -0.7703 2.5961 3.5111 -0.2187 3.4406 3.2637 0.1280 1.7078 1.3516 -11.5234 -3.3746 -16.8246 7.5886 -3.3697 21.1057 4.1430 -1.6380 9.8028 0.0000 -0.0000 0.0000 -82.6907 4.8819 13.9599 17.4338 -27.4261 -4.2852 -0.0000 -0.0000 13.3759 -7.4981 34.1116 -4.2215 -7.1250 0.0000 -0.0000 -44.5838 58.2255 -16.5174 0.0000 -0.0000 0.0000 59.6116 -12.2566 73.1291 -38.2021 46.9679 -17.1132 0.0000 -0.0000 -22.2560 0.0000 0.0000 0.0000 0.0000 0.0000 0.0000 0.0000 -0.0000 0.0000
13.6942 17.4935 -16.0381 -0.0313 -5.6760 -0.0215 0.0000 0.0000 0.0000 -20.5673 -2.9056 -20.3035 2.4915 9.8224 28.4036 0.1858 -4.6018 -7.8327 0.0546 -1.5078 -4.1473 0.0000 0.0000 0.0000 19.1857 5.0414 -3.2469 -9.3639 -17.0363 57.3404 -0.5210 -13.3662 14.8787 -0.5361 -4.6915 13.0306 -1.0135 2.6050 3.5009 -0.1557 3.4473 3.3539 0.3305 1.7052 1.4320 -11.8051 -3.3635 -16.5737 7.6693 -3.3111 20.7035 4.2178 -1.6228 9.6150 0.0000 -0.0000 0.0000 -82.6167 4.7020 14.4910 17.5479 -27.5744 -4.3379 -0.0000 -0.0000 13.7525 -8.3276 35.2999 -4.8348 -7.1250 0.0000 -0.0000 -46.6336 58.9019 -18.2948 0.0000 -0.0000 0.0000 59.2726 -11.9433 73.2162 -38.2007 46.9670 -17.1121 0.0000 -0.0000 -22.2188 0.0000 0.0000 0.0000 0.0000 0.0000 0.0000 0.0000 -0.0000 0.0000
13.7041 17.5211 -15.8726 -0.3818 -6.1235 -0.1256 0.0000 0.0000 0.0000 -20.3149 -2.3924 -19.4673 2.4331 9.7153 28.0596 0.2209 -4.3958 -8.4441 0.0419 -1.3213 -3.6334 0.0000 0.0000 0.0000 19.5458 5.6445 -4.6515 -9.9725 -17.3943 59.3963 -0.3144 -13.9438 13.1815 -0.6226 -5.0494 14.0495 -0.6973 2.7669 3.6213 0.0394 3.6667 3.3471 0.3423 1.8191 1.3619 -11.6623 -3.3130 -16.1530 7.4177 -3.2589 20.3993 4.1040 -1.6173 9.4184 0.0000 0.0000 0.0000 -82.4266 4.5377 15.3582 17.4344 -27.4268 -4.2855 -0.0000 -0.0000 14.1372 -8.9330 36.1989 -5.3037 -7.1250 0.0000 -0.0000 -48.2109 59.3985 -19.7002 0.0000 0.0000 0.0000 59.1281 -11.8337 73.1833 -38.1272 46.9204 -17.0584 0.0000 -0.0000 -22.0043 0.0000 0.0000 0.0000 0.0000 0.0000 0.0000 0.0000 -0.0000 0.0000
13.7145 17.5351 -15.7077 -0.4304 -6.2056 -0.3813 0.0000 0.0000 0.0000 -20.4103 -2.1888 -18.3950 2.3794 9.6153 27.7397 0.2541 -4.2227 -9.0018 0.0349 -1.2060 -3.3158 0.0000 0.0000 0.0000 19.5026 5.7459 -5.9893 -10.5362 -17.7005 61.2659 -0.1164 -14.1437 11.2466 -0.7935 -5.6861 15.8764 -0.5866 2.8218 3.8483 0.0687 3.7402 3.3555 0.2968 1.8581 1.2483 -10.9149 -3.2338 -16.5431 6.8416 -3.1837 20.8974 3.7933 -1.5873 9.6344 -0.0000 0.0000 0.0000 -82.0222 4.4310 16.1827 17.2048 -27.1270 -4.1803 -0.0000 -0.0000 14.7199 -9.3242 36.0500 -5.5190 -7.1250 0.0000 -0.0000 -48.3872 59.2017 -19.5605 -0.0000 0.0000 0.0000 59.1592 -11.7769 73.1075 -38.1151 46.9127 -17.0496 0.0000 -0.0000 -21.9180 0.0000 0.0000 0.0000 0.0000 0.0000 0.0000 0.0000 -0.0000 0.0000
13.7293 17.5410 -15.5491 -0.1225 -5.9906 -0.5441 0.0000 0.0000 0.0000 -20.9327 -2.1998 -17.4558 2.3300 9.5221 27.4426 0.2647 -4.0892 -9.1708 0.0334 -1.1798 -3.2436 0.0000 0.0000 0.0000 18.9556 5.4663 -7.5456 -11.0344 -17.9519 62.8931 0.0071 -13.9642 9.7179 -0.7535 -5.5441 15.4673 -0.8648 2.7253 3.8362 0.0011 3.6060 3.5127 0.3917 1.7854 1.4056 -11.0407 -3.2893 -16.6559 7.0741 -3.2759 21.0513 3.8884 -1.6149 9.7247 -0.0000 -0.0000 0.0000 -81.5678 3.8862 16.8941 16.9378 -26.7757 -4.0593 -0.0000 -0.0000 14.8254 -8.8633 35.3023 -5.1494 -7.1250 0.0000 -0.0000 -47.1187 58.7800 -18.4005 -0.0000 -0.0000 0.0000 59.1417 -11.3332 73.0161 -38.0606 46.8780 -17.0098 0.0000 -0.0000 -22.0873 0.0000 0.0000 0.0000 0.0000 0.0000 0.0000 0.0000 -0.0000 0.0000
13.7438 17.5518 -15.3849 0.2039 -5.3495 -0.7658 0.0000 0.0000 0.0000 -21.5203 -2.3004 -16.3939 2.2766 9.4199 27.1180 0.2720 -4.1795 -9.2986 0.0199 -0.9105 -2.5026 0.0000 0.0000 0.0000 18.4313 4.8517 -8.9280 -11.4424 -18.1448 64.2099 0.1375 -13.8298 7.9493 -0.4712 -4.4024 12.2117 -1.1941 2.4566 3.9469 0.0299 3.2389 3.6182 0.6121 1.5943 1.4376 -11.4419 -3.2626 -16.2343 7.4237 -3.2475 20.6176 4.0757 -1.5960 9.5035 0.0000 -0.0000 0.0000 -81.5474 3.3949 17.0264 16.7715 -26.5556 -3.9846 -0.0000 -0.0000 15.0094 -8.2869 34.6053 -4.7286 -7.1250 0.0000 -0.0000 -45.8284 58.4094 -17.3260 0.0000 -0.0000 0.0000 58.8472 -10.9762 73.1730 -38.1378 46.9271 -17.0662 0.0000 -0.0000 -22.3638 0.0000 0.0000 0.0000 0.0000 0.0000 0.0000 0.0000 -0.0000 0.0000
